<svg width="178" height="66" viewBox="0 0 178 66" fill="none" xmlns="http://www.w3.org/2000/svg">
<g filter="url(#filter0_dd_815_407)">
<rect x="9" y="9" width="160" height="48" rx="8" fill="#4695EB"/>
<path d="M62.9347 39.0168L60.3975 32.1615L57.8721 39.0168H62.9347ZM54.0898 44.1031L59.3495 30.3216H61.4573L66.717 44.1031H64.7746L63.5178 40.5651H57.3126L56.0558 44.1031H54.0898ZM70.2904 42.5547V48.035H68.5923V33.765H70.2904V35.3252C70.6489 34.7105 71.0981 34.2575 71.6417 33.962C72.1933 33.6586 72.8434 33.5089 73.5959 33.5089C74.8527 33.5089 75.8731 34.0093 76.6571 35.01C77.449 36.0028 77.843 37.3148 77.843 38.9459C77.843 40.5691 77.449 41.8771 76.6571 42.8817C75.8731 43.8746 74.8527 44.371 73.5959 44.371C72.8434 44.371 72.1933 44.2252 71.6417 43.9297C71.0981 43.6264 70.6489 43.1654 70.2904 42.5547ZM76.074 38.9459C76.074 37.6969 75.814 36.7159 75.294 36.0028C74.7897 35.2897 74.0884 34.9312 73.1861 34.9312C72.2879 34.9312 71.5748 35.2897 71.0547 36.0028C70.5425 36.7159 70.2864 37.6969 70.2864 38.9459C70.2864 40.1948 70.5425 41.1758 71.0547 41.8889C71.5748 42.5941 72.2839 42.9487 73.1861 42.9487C74.0844 42.9487 74.7897 42.5941 75.294 41.8889C75.814 41.1758 76.074 40.1948 76.074 38.9459ZM82.3029 42.5547V48.035H80.593V33.765H82.3029V35.3252C82.6614 34.7105 83.1066 34.2575 83.6424 33.962C84.194 33.6586 84.848 33.5089 85.6084 33.5089C86.8573 33.5089 87.8738 34.0093 88.6578 35.01C89.4497 36.0028 89.8437 37.3148 89.8437 38.9459C89.8437 40.5691 89.4497 41.8771 88.6578 42.8817C87.8738 43.8746 86.8573 44.371 85.6084 44.371C84.848 44.371 84.194 44.2252 83.6424 43.9297C83.1066 43.6264 82.6575 43.1654 82.3029 42.5547ZM88.0747 38.9459C88.0747 37.6969 87.8147 36.7159 87.2946 36.0028C86.7903 35.2897 86.0891 34.9312 85.1868 34.9312C84.2886 34.9312 83.5754 35.2897 83.0554 36.0028C82.5511 36.7159 82.299 37.6969 82.299 38.9459C82.299 40.1948 82.5511 41.1758 83.0554 41.8889C83.5754 42.5941 84.2846 42.9487 85.1868 42.9487C86.0851 42.9487 86.7903 42.5941 87.2946 41.8889C87.8147 41.1758 88.0747 40.1948 88.0747 38.9459ZM102.065 42.1371V38.4376H99.0274V36.9011H103.917V42.8266C103.196 43.3388 102.4 43.7249 101.529 43.9888C100.666 44.2449 99.7445 44.371 98.7595 44.371C96.6005 44.371 94.9142 43.7406 93.6968 42.4838C92.4873 41.227 91.8806 39.4738 91.8806 37.2242C91.8806 34.9745 92.4873 33.2213 93.6968 31.9645C94.9142 30.6998 96.6044 30.0655 98.7595 30.0655C99.6578 30.0655 100.509 30.1798 101.309 30.4043C102.124 30.621 102.873 30.948 103.554 31.3814V33.371C102.865 32.78 102.132 32.3388 101.356 32.0433C100.58 31.7478 99.7642 31.602 98.9132 31.602C97.2309 31.602 95.9622 32.0709 95.1073 33.0085C94.2681 33.9541 93.8505 35.3606 93.8505 37.2202C93.8505 39.0798 94.2681 40.4824 95.1073 41.4201C95.9622 42.3577 97.2309 42.8266 98.9132 42.8266C99.5711 42.8266 100.162 42.7714 100.682 42.665C101.194 42.5547 101.655 42.3774 102.065 42.1371ZM113.577 38.8986H111.891C110.516 38.8986 109.566 39.0562 109.039 39.3753C108.511 39.6865 108.247 40.2224 108.247 40.9827C108.247 41.5895 108.444 42.0701 108.842 42.4247C109.235 42.7754 109.775 42.9487 110.461 42.9487C111.406 42.9487 112.163 42.6138 112.73 41.948C113.297 41.2822 113.581 40.3918 113.581 39.2807V38.8986H113.577ZM115.275 38.2012V44.1031H113.577V42.5311C113.191 43.1615 112.706 43.6264 112.135 43.9297C111.552 44.2252 110.843 44.371 110.004 44.371C108.948 44.371 108.105 44.0755 107.478 43.4845C106.856 42.8857 106.549 42.0859 106.549 41.0852C106.549 39.9308 106.935 39.0522 107.711 38.4534C108.495 37.8624 109.657 37.5669 111.201 37.5669H113.577V37.4054C113.577 36.6214 113.321 36.0146 112.809 35.5891C112.297 35.1636 111.576 34.9509 110.646 34.9509C110.055 34.9509 109.484 35.0218 108.924 35.1597C108.365 35.2976 107.825 35.5143 107.305 35.7979V34.2259C107.927 33.9856 108.53 33.8083 109.121 33.6901C109.704 33.5641 110.268 33.505 110.819 33.505C112.316 33.505 113.435 33.8911 114.172 34.6672C114.909 35.4512 115.275 36.6253 115.275 38.2012ZM118.778 44.1031V29.7424H120.476V44.1031H118.778ZM124.03 44.1031V29.7424H125.728V44.1031H124.03ZM138.075 38.5046V39.3438H130.266C130.337 40.506 130.684 41.4004 131.314 42.0189C131.949 42.6256 132.831 42.9251 133.958 42.9251C134.608 42.9251 135.238 42.8463 135.845 42.6926C136.468 42.5311 137.074 42.2908 137.673 41.9716V43.5791C137.066 43.8352 136.444 44.0322 135.798 44.174C135.163 44.304 134.513 44.371 133.855 44.371C132.209 44.371 130.905 43.8903 129.931 42.929C128.97 41.9756 128.489 40.6794 128.489 39.0404C128.489 37.3423 128.946 35.9989 129.864 35.0139C130.778 34.0132 132.016 33.5128 133.564 33.5128C134.955 33.5128 136.05 33.962 136.858 34.8642C137.669 35.7546 138.075 36.9681 138.075 38.5046ZM130.314 38.0161H136.377C136.361 37.0863 136.097 36.3416 135.585 35.7822C135.081 35.2306 134.411 34.9548 133.572 34.9548C132.626 34.9548 131.866 35.2227 131.291 35.7585C130.723 36.2944 130.4 37.0469 130.314 38.0161ZM146.782 33.6035L146.794 35.3488C146.601 35.2385 146.392 35.1597 146.163 35.1045C145.935 35.0494 145.695 35.0218 145.431 35.0218C144.469 35.0218 143.729 35.337 143.209 35.9634C142.696 36.5859 142.44 37.4802 142.44 38.6504V44.0991H140.742V33.765H142.44V35.3724C142.799 34.7421 143.264 34.2772 143.839 33.9738C144.414 33.6626 145.108 33.5089 145.923 33.5089C146.041 33.5089 146.171 33.5207 146.317 33.5444C146.455 33.5522 146.613 33.5719 146.782 33.6035ZM157.419 33.765L152.881 45.0565C152.4 46.2897 151.931 47.0973 151.474 47.4756C151.017 47.8498 150.407 48.035 149.646 48.035H148.283V46.6167H149.284C149.749 46.6167 150.115 46.5024 150.379 46.2779C150.635 46.0612 150.919 45.5372 151.23 44.7059L151.545 43.9376L147.353 33.765H149.158L152.392 41.8416L155.615 33.765H157.419Z" fill="white"/>
<path d="M41.8102 18.3918H29.1476C23.1749 18.3918 20.9883 20.5666 20.9883 26.5394V39.202C20.9883 45.1747 23.1749 47.3613 29.1476 47.3613H41.8102C47.7712 47.3613 49.9578 45.1747 49.9578 39.202V26.5394C49.9578 20.5666 47.783 18.3918 41.8102 18.3918Z" fill="white"/>
<path fill-rule="evenodd" clip-rule="evenodd" d="M33.3512 35.8728L33.0005 36.6529H32.2205L33.8831 32.8707H34.5568L36.2194 36.6529H35.4157L35.0768 35.8728H33.3512ZM33.627 35.1873H34.7892L34.2061 33.8359L33.627 35.1873ZM45.9665 32.8707H46.7348V36.6529H45.9665V32.8707ZM42.9525 35.9674H45.0603V36.6529H42.1961V32.8707H44.9776V33.568H42.9525V34.3363H44.3512V35.0337H42.9525V35.9674ZM40.7738 32.8707H41.5775L40.2616 36.6647H39.6116L38.7487 34.1748L37.8859 36.6647H37.2555L35.9278 32.8707H36.7552L37.5944 35.4788L38.4454 32.8707H39.0757L39.9386 35.4788L40.7738 32.8707ZM31.0582 32.8707H31.8265V35.014C31.8265 36.0974 31.2316 36.7238 30.1836 36.7238C29.1592 36.7238 28.5643 36.1053 28.5643 35.0376V32.8746H29.3326V35.0179C29.3326 35.6561 29.6359 35.995 30.1954 35.995C30.7548 35.995 31.0582 35.6561 31.0582 35.0415V32.8707ZM26.7284 32.8707H27.4966V36.6647H26.7284V35.1164H24.9948V36.6647H24.2266V32.8707H24.9948V34.3954H26.7284V32.8707ZM35.4787 28.0523C32.8114 28.0523 30.6603 25.8893 30.6603 23.2339H31.334C31.334 25.515 33.1975 27.3668 35.4787 27.3668C37.7598 27.3668 39.6234 25.515 39.6234 23.2339H40.2971C40.2971 25.8854 38.1341 28.0523 35.4787 28.0523Z" fill="black"/>
<path d="M58.5313 23.1094C58.0156 23.1094 57.556 23.0208 57.1523 22.8437C56.7513 22.6667 56.4323 22.4206 56.1953 22.1055C55.9609 21.7878 55.8333 21.4193 55.8125 21H56.7969C56.8177 21.2578 56.9063 21.4805 57.0625 21.668C57.2188 21.8529 57.4232 21.9961 57.6758 22.0977C57.9284 22.1992 58.2083 22.25 58.5156 22.25C58.8594 22.25 59.1641 22.1901 59.4297 22.0703C59.6953 21.9505 59.9036 21.7839 60.0547 21.5703C60.2057 21.3568 60.2813 21.1094 60.2813 20.8281C60.2813 20.5339 60.2083 20.2747 60.0625 20.0508C59.9167 19.8242 59.7031 19.6471 59.4219 19.5195C59.1406 19.3919 58.7969 19.3281 58.3906 19.3281H57.75V18.4687H58.3906C58.7083 18.4687 58.987 18.4115 59.2266 18.2969C59.4688 18.1823 59.6576 18.0208 59.793 17.8125C59.931 17.6042 60 17.3594 60 17.0781C60 16.8073 59.9401 16.5716 59.8203 16.3711C59.7005 16.1706 59.5313 16.0143 59.3125 15.9023C59.0964 15.7904 58.8411 15.7344 58.5469 15.7344C58.2708 15.7344 58.0104 15.7852 57.7656 15.8867C57.5234 15.9857 57.3255 16.1302 57.1719 16.3203C57.0182 16.5078 56.9349 16.7344 56.9219 17H55.9844C56 16.5807 56.1263 16.2135 56.3633 15.8984C56.6003 15.5807 56.9102 15.3333 57.293 15.1562C57.6784 14.9792 58.1016 14.8906 58.5625 14.8906C59.0573 14.8906 59.4818 14.9909 59.8359 15.1914C60.1901 15.3893 60.4622 15.651 60.6523 15.9766C60.8424 16.3021 60.9375 16.6536 60.9375 17.0313C60.9375 17.4818 60.819 17.8659 60.582 18.1836C60.3477 18.5013 60.0286 18.7214 59.625 18.8438V18.9062C60.1302 18.9896 60.5247 19.2044 60.8086 19.5508C61.0924 19.8945 61.2344 20.3203 61.2344 20.8281C61.2344 21.263 61.1159 21.6536 60.8789 22C60.6445 22.3437 60.3242 22.6146 59.918 22.8125C59.5117 23.0104 59.0495 23.1094 58.5313 23.1094ZM64.6133 23.1406C64.2331 23.1406 63.888 23.069 63.5781 22.9258C63.2682 22.7799 63.0221 22.5703 62.8398 22.2969C62.6576 22.0208 62.5664 21.6875 62.5664 21.2969C62.5664 20.9531 62.6341 20.6745 62.7695 20.4609C62.9049 20.2448 63.0859 20.0755 63.3125 19.9531C63.5391 19.8307 63.7891 19.7396 64.0625 19.6797C64.3385 19.6172 64.6159 19.5677 64.8945 19.5313C65.2591 19.4844 65.5547 19.4492 65.7813 19.4258C66.0104 19.3997 66.1771 19.3568 66.2813 19.2969C66.388 19.237 66.4414 19.1328 66.4414 18.9844V18.9531C66.4414 18.5677 66.3359 18.2682 66.125 18.0547C65.9167 17.8411 65.6003 17.7344 65.1758 17.7344C64.7357 17.7344 64.3906 17.8307 64.1406 18.0234C63.8906 18.2161 63.7148 18.4219 63.6133 18.6406L62.7383 18.3281C62.8945 17.9635 63.1029 17.6797 63.3633 17.4766C63.6263 17.2708 63.9128 17.1276 64.2227 17.0469C64.5352 16.9635 64.8424 16.9219 65.1445 16.9219C65.3372 16.9219 65.5586 16.9453 65.8086 16.9922C66.0612 17.0365 66.3047 17.1289 66.5391 17.2695C66.776 17.4102 66.9727 17.6224 67.1289 17.9062C67.2852 18.1901 67.3633 18.5703 67.3633 19.0469V23H66.4414V22.1875H66.3945C66.332 22.3177 66.2279 22.457 66.082 22.6055C65.9362 22.7539 65.7422 22.8802 65.5 22.9844C65.2578 23.0885 64.9622 23.1406 64.6133 23.1406ZM64.7539 22.3125C65.1185 22.3125 65.4258 22.2409 65.6758 22.0977C65.9284 21.9544 66.1185 21.7695 66.2461 21.543C66.3763 21.3164 66.4414 21.0781 66.4414 20.8281V19.9844C66.4023 20.0312 66.3164 20.0742 66.1836 20.1133C66.0534 20.1497 65.9023 20.1823 65.7305 20.2109C65.5612 20.237 65.3958 20.2604 65.2344 20.2812C65.0755 20.2995 64.9466 20.3151 64.8477 20.3281C64.6081 20.3594 64.3841 20.4102 64.1758 20.4805C63.9701 20.5482 63.8034 20.651 63.6758 20.7891C63.5508 20.9245 63.4883 21.1094 63.4883 21.3437C63.4883 21.6641 63.6068 21.9062 63.8438 22.0703C64.0833 22.2318 64.3867 22.3125 64.7539 22.3125ZM72.749 17V17.8594H69.9678V23H69.0459V17H72.749ZM74.0947 25.25V17H74.9854V17.9531H75.0947C75.1624 17.849 75.2562 17.7161 75.376 17.5547C75.4984 17.3906 75.6729 17.2448 75.8994 17.1172C76.1286 16.987 76.4385 16.9219 76.8291 16.9219C77.3343 16.9219 77.7796 17.0482 78.165 17.3008C78.5505 17.5534 78.8512 17.9115 79.0674 18.375C79.2835 18.8385 79.3916 19.3854 79.3916 20.0156C79.3916 20.651 79.2835 21.2018 79.0674 21.668C78.8512 22.1315 78.5518 22.4909 78.1689 22.7461C77.7861 22.9987 77.3447 23.125 76.8447 23.125C76.4593 23.125 76.1507 23.0612 75.9189 22.9336C75.6872 22.8034 75.5088 22.6562 75.3838 22.4922C75.2588 22.3255 75.1624 22.1875 75.0947 22.0781H75.0166V25.25H74.0947ZM75.001 20C75.001 20.4531 75.0674 20.8529 75.2002 21.1992C75.333 21.543 75.527 21.8125 75.7822 22.0078C76.0374 22.2005 76.3499 22.2969 76.7197 22.2969C77.1051 22.2969 77.4268 22.1953 77.6846 21.9922C77.945 21.7865 78.1403 21.5104 78.2705 21.1641C78.4033 20.8151 78.4697 20.4271 78.4697 20C78.4697 19.5781 78.4046 19.1979 78.2744 18.8594C78.1468 18.5182 77.9528 18.2487 77.6924 18.0508C77.4346 17.8503 77.1104 17.75 76.7197 17.75C76.3447 17.75 76.0296 17.8451 75.7744 18.0352C75.5192 18.2227 75.3265 18.4857 75.1963 18.8242C75.0661 19.1602 75.001 19.5521 75.001 20ZM81.1768 25.25C81.0205 25.25 80.8812 25.237 80.7588 25.2109C80.6364 25.1875 80.5518 25.1641 80.5049 25.1406L80.7393 24.3281C80.9632 24.3854 81.1611 24.4063 81.333 24.3906C81.5049 24.375 81.6572 24.2982 81.79 24.1602C81.9255 24.0247 82.0492 23.8047 82.1611 23.5L82.333 23.0313L80.1143 17H81.1143L82.7705 21.7812H82.833L84.4893 17H85.4893L82.9424 23.875C82.8278 24.1849 82.6859 24.4414 82.5166 24.6445C82.3473 24.8503 82.1507 25.0026 81.9268 25.1016C81.7054 25.2005 81.4554 25.25 81.1768 25.25ZM86.3311 21.4687H87.3154C87.3363 21.7396 87.4587 21.9453 87.6826 22.0859C87.9092 22.2266 88.2035 22.2969 88.5654 22.2969C88.9352 22.2969 89.2516 22.2214 89.5146 22.0703C89.7777 21.9167 89.9092 21.6693 89.9092 21.3281C89.9092 21.1276 89.8597 20.9531 89.7607 20.8047C89.6618 20.6536 89.5225 20.5365 89.3428 20.4531C89.1631 20.3698 88.9508 20.3281 88.7061 20.3281H87.6748V19.5H88.7061C89.0732 19.5 89.3441 19.4167 89.5186 19.25C89.6956 19.0833 89.7842 18.875 89.7842 18.625C89.7842 18.3568 89.6891 18.1419 89.499 17.9805C89.3089 17.8164 89.0394 17.7344 88.6904 17.7344C88.3389 17.7344 88.0459 17.8138 87.8115 17.9727C87.5771 18.1289 87.4535 18.3307 87.4404 18.5781H86.4717C86.4821 18.2552 86.5811 17.9701 86.7686 17.7227C86.9561 17.4727 87.2113 17.2773 87.5342 17.1367C87.8571 16.9935 88.2269 16.9219 88.6436 16.9219C89.0654 16.9219 89.4313 16.9961 89.7412 17.1445C90.0537 17.2904 90.2946 17.4896 90.4639 17.7422C90.6357 17.9922 90.7217 18.276 90.7217 18.5937C90.7217 18.9323 90.6266 19.2057 90.4365 19.4141C90.2464 19.6224 90.0081 19.7708 89.7217 19.8594V19.9219C89.9482 19.9375 90.1449 20.0104 90.3115 20.1406C90.4808 20.2682 90.6123 20.4362 90.7061 20.6445C90.7998 20.8503 90.8467 21.0781 90.8467 21.3281C90.8467 21.6927 90.749 22.0104 90.5537 22.2812C90.3584 22.5495 90.0902 22.7578 89.749 22.9062C89.4079 23.0521 89.0186 23.125 88.5811 23.125C88.1566 23.125 87.7764 23.056 87.4404 22.918C87.1045 22.7773 86.8376 22.5833 86.6396 22.3359C86.4443 22.0859 86.3415 21.7969 86.3311 21.4687ZM93.0635 21.6406L95.9541 17H97.0166V23H96.0947V18.3594L93.2197 23H92.1416V17H93.0635V21.6406ZM97.8887 17.8594V17H102.764V17.8594H100.795V23H99.873V17.8594H97.8887ZM106.313 23.125C105.734 23.125 105.236 22.9974 104.816 22.7422C104.4 22.4844 104.078 22.125 103.852 21.6641C103.628 21.2005 103.516 20.6615 103.516 20.0469C103.516 19.4323 103.628 18.8906 103.852 18.4219C104.078 17.9505 104.393 17.5833 104.797 17.3203C105.203 17.0547 105.677 16.9219 106.219 16.9219C106.531 16.9219 106.84 16.974 107.145 17.0781C107.449 17.1823 107.727 17.3516 107.977 17.5859C108.227 17.8177 108.426 18.125 108.574 18.5078C108.723 18.8906 108.797 19.362 108.797 19.9219V20.3125H104.172V19.5156H107.859C107.859 19.1771 107.792 18.875 107.656 18.6094C107.523 18.3437 107.333 18.1341 107.086 17.9805C106.841 17.8268 106.552 17.75 106.219 17.75C105.852 17.75 105.534 17.8411 105.266 18.0234C105 18.2031 104.796 18.4375 104.652 18.7266C104.509 19.0156 104.438 19.3255 104.438 19.6562V20.1875C104.438 20.6406 104.516 21.0247 104.672 21.3398C104.831 21.6523 105.051 21.8906 105.332 22.0547C105.613 22.2161 105.94 22.2969 106.313 22.2969C106.555 22.2969 106.773 22.263 106.969 22.1953C107.167 22.125 107.337 22.0208 107.48 21.8828C107.624 21.7422 107.734 21.5677 107.813 21.3594L108.703 21.6094C108.609 21.9115 108.452 22.1771 108.23 22.4062C108.009 22.6328 107.736 22.8099 107.41 22.9375C107.085 23.0625 106.719 23.125 106.313 23.125ZM113.293 23V17H115.746C116.392 17 116.905 17.1458 117.285 17.4375C117.665 17.7292 117.855 18.1146 117.855 18.5937C117.855 18.9583 117.747 19.2409 117.531 19.4414C117.315 19.6393 117.038 19.7734 116.699 19.8438C116.921 19.875 117.135 19.9531 117.344 20.0781C117.555 20.2031 117.729 20.375 117.867 20.5938C118.005 20.8099 118.074 21.0755 118.074 21.3906C118.074 21.6979 117.996 21.9727 117.84 22.2148C117.684 22.457 117.46 22.6484 117.168 22.7891C116.876 22.9297 116.527 23 116.121 23H113.293ZM114.168 22.1562H116.121C116.439 22.1562 116.688 22.0807 116.867 21.9297C117.047 21.7786 117.137 21.5729 117.137 21.3125C117.137 21.0026 117.047 20.7591 116.867 20.582C116.688 20.4023 116.439 20.3125 116.121 20.3125H114.168V22.1562ZM114.168 19.5156H115.746C115.993 19.5156 116.206 19.4818 116.383 19.4141C116.56 19.3437 116.695 19.2448 116.789 19.1172C116.885 18.987 116.934 18.8333 116.934 18.6562C116.934 18.4036 116.828 18.2057 116.617 18.0625C116.406 17.9167 116.116 17.8438 115.746 17.8438H114.168V19.5156Z" fill="white"/>
</g>
<defs>
<filter id="filter0_dd_815_407" x="0" y="0" width="178" height="66" filterUnits="userSpaceOnUse" color-interpolation-filters="sRGB">
<feFlood flood-opacity="0" result="BackgroundImageFix"/>
<feColorMatrix in="SourceAlpha" type="matrix" values="0 0 0 0 0 0 0 0 0 0 0 0 0 0 0 0 0 0 127 0" result="hardAlpha"/>
<feOffset dx="1" dy="1"/>
<feGaussianBlur stdDeviation="4"/>
<feComposite in2="hardAlpha" operator="out"/>
<feColorMatrix type="matrix" values="0 0 0 0 0 0 0 0 0 0 0 0 0 0 0 0 0 0 0.05 0"/>
<feBlend mode="normal" in2="BackgroundImageFix" result="effect1_dropShadow_815_407"/>
<feColorMatrix in="SourceAlpha" type="matrix" values="0 0 0 0 0 0 0 0 0 0 0 0 0 0 0 0 0 0 127 0" result="hardAlpha"/>
<feOffset dx="-1" dy="-1"/>
<feGaussianBlur stdDeviation="4"/>
<feComposite in2="hardAlpha" operator="out"/>
<feColorMatrix type="matrix" values="0 0 0 0 0 0 0 0 0 0 0 0 0 0 0 0 0 0 0.05 0"/>
<feBlend mode="normal" in2="effect1_dropShadow_815_407" result="effect2_dropShadow_815_407"/>
<feBlend mode="normal" in="SourceGraphic" in2="effect2_dropShadow_815_407" result="shape"/>
</filter>
</defs>
</svg>
