<svg width="178" height="66" viewBox="0 0 178 66" fill="none" xmlns="http://www.w3.org/2000/svg">
<g filter="url(#filter0_dd_815_412)">
<rect x="9" y="9" width="160" height="48" rx="8" fill="#4695EB"/>
<path d="M56.6115 33.75C56.6115 29.52 60.1065 27.496 60.1985 27.404C58.2685 24.554 55.1405 24.104 54.1285 24.104C51.5535 23.828 49.0705 25.667 47.7825 25.667C46.4025 25.667 44.4825 24.197 42.2645 24.197C39.5045 24.197 36.8385 25.852 35.4585 28.335C32.4235 33.485 34.6305 41.035 37.4815 45.165C38.8615 47.188 40.5165 49.487 42.7235 49.395C44.8385 49.303 45.6665 48.015 48.2415 48.015C50.8165 48.015 51.5415 49.395 53.7595 49.303C56.0595 49.303 57.4395 47.28 58.8175 45.256C60.4725 42.956 61.1175 40.658 61.1175 40.474C61.0255 40.474 56.7035 38.819 56.6115 33.76V33.75ZM52.4735 21.334C53.5775 19.864 54.4035 17.931 54.2205 16C52.5655 16.092 50.5405 17.104 49.3465 18.575C48.3345 19.771 47.3235 21.795 47.5995 23.725C49.3465 23.817 51.2795 22.713 52.4735 21.325V21.334ZM76.5035 43.354H74.3035L73.0605 39.488H68.8605L67.6865 43.354H65.5465L69.7465 30.307H72.3695L76.5035 43.354ZM72.6375 37.97L71.5335 34.587C71.3955 34.242 71.1885 33.413 70.8335 32.102H70.7635L70.1435 34.587L69.0395 37.97H72.6375ZM87.2725 38.59C87.2725 40.178 86.8585 41.49 85.9605 42.387C85.2005 43.215 84.2345 43.63 83.0605 43.63C81.8175 43.63 80.9205 43.216 80.3685 42.318V47.288H78.2985V37.071L78.2285 33.965H80.0925L80.2305 35.485H80.3005C81.0005 34.381 82.0265 33.828 83.4755 33.828C84.5795 33.828 85.5455 34.242 86.2355 35.14C86.9355 35.968 87.2705 37.142 87.2705 38.592L87.2725 38.59ZM85.1325 38.66C85.1325 37.763 84.9255 37.003 84.5125 36.382C84.0295 35.762 83.4775 35.485 82.7175 35.485C82.2345 35.485 81.7515 35.692 81.3375 35.968C80.9043 36.3133 80.6103 36.8033 80.5095 37.348C80.4395 37.555 80.3715 37.762 80.3715 37.968V39.556C80.353 40.1889 80.5745 40.8055 80.9915 41.282C81.4045 41.765 81.9575 41.982 82.6485 41.982C83.4085 41.982 84.0285 41.706 84.5125 41.085C84.9265 40.465 85.1325 39.635 85.1325 38.669V38.66ZM98.1105 38.59C98.1105 40.178 97.6965 41.49 96.7985 42.387C96.0385 43.215 95.0725 43.63 93.8985 43.63C92.6555 43.63 91.7585 43.216 91.2065 42.318H91.1365V47.288H89.0665V37.071L88.9965 33.965H90.8605L90.9985 35.485H91.0685C91.7685 34.381 92.7945 33.828 94.2435 33.828C95.3475 33.828 96.3135 34.242 97.0035 35.14C97.7635 35.968 98.1075 37.142 98.1075 38.592L98.1105 38.59ZM95.9705 38.66C95.9705 37.763 95.7635 37.003 95.3505 36.382C94.8675 35.762 94.3155 35.485 93.5555 35.485C93.0725 35.485 92.5895 35.692 92.1755 35.968C91.7423 36.3133 91.4483 36.8033 91.3475 37.348C91.2775 37.624 91.2775 37.831 91.2775 37.968V39.556C91.2591 40.1889 91.4805 40.8055 91.8975 41.282C92.3105 41.765 92.8635 41.982 93.5545 41.982C94.3145 41.982 94.9345 41.706 95.4185 41.085C95.7635 40.465 95.9705 39.635 95.9705 38.669V38.66ZM110.19 39.694C110.19 40.798 109.776 41.696 109.016 42.386C108.188 43.146 107.014 43.56 105.416 43.56C104.036 43.56 102.862 43.284 102.033 42.732L102.516 41.006C103.413 41.558 104.45 41.834 105.553 41.834C106.313 41.834 106.933 41.627 107.417 41.282C107.831 40.937 108.117 40.454 108.117 39.832C108.121 39.587 108.074 39.3439 107.979 39.1181C107.884 38.8922 107.743 38.6886 107.565 38.52C107.22 38.174 106.599 37.82 105.77 37.485C103.492 36.657 102.318 35.415 102.318 33.757C102.307 33.2601 102.407 32.7669 102.61 32.3132C102.813 31.8595 103.114 31.4567 103.492 31.134C104.32 30.434 105.356 30.099 106.667 30.099C107.841 30.099 108.868 30.306 109.635 30.719L109.083 32.445C108.321 32.0307 107.466 31.8173 106.598 31.825C105.838 31.825 105.286 32.032 104.872 32.377C104.527 32.722 104.32 33.077 104.32 33.551C104.321 33.802 104.377 34.0498 104.484 34.2766C104.591 34.5035 104.748 34.7037 104.941 34.863C105.286 35.139 105.907 35.483 106.874 35.898C107.978 36.381 108.807 36.864 109.359 37.486C109.979 38.038 110.188 38.798 110.188 39.686L110.19 39.694ZM117.162 35.554H114.884V40.11C114.884 41.284 115.299 41.836 116.128 41.836C116.473 41.836 116.827 41.836 117.024 41.766L117.094 43.354C116.68 43.492 116.129 43.561 115.438 43.561C114.609 43.561 113.988 43.285 113.505 42.801C113.021 42.317 112.804 41.421 112.804 40.247V35.494H111.424V33.906H112.804V32.249L114.874 31.629V33.976H117.152L117.162 35.554ZM127.517 38.59C127.517 40.04 127.104 41.213 126.274 42.19C125.377 43.156 124.272 43.64 122.822 43.64C121.442 43.64 120.337 43.157 119.509 42.26C118.681 41.363 118.266 40.19 118.266 38.808C118.266 37.358 118.68 36.185 119.509 35.208C120.337 34.311 121.512 33.828 122.962 33.828C124.341 33.828 125.446 34.311 126.274 35.208C127.172 36.036 127.517 37.21 127.517 38.591V38.59ZM125.378 38.66C125.392 37.8878 125.202 37.1254 124.826 36.451C124.411 35.691 123.791 35.347 122.962 35.347C122.132 35.347 121.511 35.692 121.028 36.451C120.683 37.071 120.477 37.831 120.477 38.729C120.462 39.5012 120.652 40.2635 121.028 40.938C121.511 41.698 122.132 42.042 122.962 42.042C123.791 42.042 124.411 41.628 124.826 40.868C125.171 40.316 125.378 39.556 125.378 38.668V38.66ZM134.351 35.83C134.144 35.76 133.938 35.76 133.651 35.76C132.891 35.76 132.339 36.036 131.925 36.588C131.58 37.071 131.373 37.692 131.373 38.452V43.422H129.303V37.002L129.233 34.034H131.028L131.098 35.829H131.168C131.364 35.2356 131.723 34.7092 132.203 34.31C132.686 33.965 133.169 33.827 133.723 33.827C133.93 33.827 134.068 33.827 134.275 33.897L134.351 35.83ZM143.671 38.245C143.671 38.59 143.671 38.945 143.601 39.211H137.319C137.319 40.108 137.664 40.868 138.216 41.351C138.812 41.803 139.54 42.0456 140.287 42.041C141.185 42.041 142.082 41.903 142.841 41.627L143.186 43.077C142.289 43.491 141.253 43.629 140.011 43.629C138.562 43.629 137.388 43.215 136.559 42.317C135.731 41.489 135.316 40.315 135.316 38.865C135.316 37.415 135.73 36.242 136.49 35.345C137.318 34.31 138.424 33.825 139.803 33.825C141.183 33.825 142.219 34.308 142.909 35.345C143.392 36.045 143.669 37.071 143.669 38.245H143.671ZM141.738 37.693C141.738 37.073 141.6 36.519 141.324 36.105C140.979 35.553 140.427 35.208 139.667 35.208C138.967 35.208 138.424 35.484 138.01 36.036C137.665 36.519 137.458 37.002 137.39 37.693H141.738Z" fill="white"/>
<path d="M71.5313 23.1094C71.0156 23.1094 70.556 23.0208 70.1523 22.8437C69.7513 22.6667 69.4323 22.4206 69.1953 22.1055C68.9609 21.7878 68.8333 21.4193 68.8125 21H69.7969C69.8177 21.2578 69.9063 21.4805 70.0625 21.668C70.2188 21.8529 70.4232 21.9961 70.6758 22.0977C70.9284 22.1992 71.2083 22.25 71.5156 22.25C71.8594 22.25 72.1641 22.1901 72.4297 22.0703C72.6953 21.9505 72.9036 21.7839 73.0547 21.5703C73.2057 21.3568 73.2813 21.1094 73.2813 20.8281C73.2813 20.5339 73.2083 20.2747 73.0625 20.0508C72.9167 19.8242 72.7031 19.6471 72.4219 19.5195C72.1406 19.3919 71.7969 19.3281 71.3906 19.3281H70.75V18.4687H71.3906C71.7083 18.4687 71.987 18.4115 72.2266 18.2969C72.4688 18.1823 72.6576 18.0208 72.793 17.8125C72.931 17.6042 73 17.3594 73 17.0781C73 16.8073 72.9401 16.5716 72.8203 16.3711C72.7005 16.1706 72.5313 16.0143 72.3125 15.9023C72.0964 15.7904 71.8411 15.7344 71.5469 15.7344C71.2708 15.7344 71.0104 15.7852 70.7656 15.8867C70.5234 15.9857 70.3255 16.1302 70.1719 16.3203C70.0182 16.5078 69.9349 16.7344 69.9219 17H68.9844C69 16.5807 69.1263 16.2135 69.3633 15.8984C69.6003 15.5807 69.9102 15.3333 70.293 15.1562C70.6784 14.9792 71.1016 14.8906 71.5625 14.8906C72.0573 14.8906 72.4818 14.9909 72.8359 15.1914C73.1901 15.3893 73.4622 15.651 73.6523 15.9766C73.8424 16.3021 73.9375 16.6536 73.9375 17.0313C73.9375 17.4818 73.819 17.8659 73.582 18.1836C73.3477 18.5013 73.0286 18.7214 72.625 18.8438V18.9062C73.1302 18.9896 73.5247 19.2044 73.8086 19.5508C74.0924 19.8945 74.2344 20.3203 74.2344 20.8281C74.2344 21.263 74.1159 21.6536 73.8789 22C73.6445 22.3437 73.3242 22.6146 72.918 22.8125C72.5117 23.0104 72.0495 23.1094 71.5313 23.1094ZM77.6133 23.1406C77.2331 23.1406 76.888 23.069 76.5781 22.9258C76.2682 22.7799 76.0221 22.5703 75.8398 22.2969C75.6576 22.0208 75.5664 21.6875 75.5664 21.2969C75.5664 20.9531 75.6341 20.6745 75.7695 20.4609C75.9049 20.2448 76.0859 20.0755 76.3125 19.9531C76.5391 19.8307 76.7891 19.7396 77.0625 19.6797C77.3385 19.6172 77.6159 19.5677 77.8945 19.5313C78.2591 19.4844 78.5547 19.4492 78.7813 19.4258C79.0104 19.3997 79.1771 19.3568 79.2813 19.2969C79.388 19.237 79.4414 19.1328 79.4414 18.9844V18.9531C79.4414 18.5677 79.3359 18.2682 79.125 18.0547C78.9167 17.8411 78.6003 17.7344 78.1758 17.7344C77.7357 17.7344 77.3906 17.8307 77.1406 18.0234C76.8906 18.2161 76.7148 18.4219 76.6133 18.6406L75.7383 18.3281C75.8945 17.9635 76.1029 17.6797 76.3633 17.4766C76.6263 17.2708 76.9128 17.1276 77.2227 17.0469C77.5352 16.9635 77.8424 16.9219 78.1445 16.9219C78.3372 16.9219 78.5586 16.9453 78.8086 16.9922C79.0612 17.0365 79.3047 17.1289 79.5391 17.2695C79.776 17.4102 79.9727 17.6224 80.1289 17.9062C80.2852 18.1901 80.3633 18.5703 80.3633 19.0469V23H79.4414V22.1875H79.3945C79.332 22.3177 79.2279 22.457 79.082 22.6055C78.9362 22.7539 78.7422 22.8802 78.5 22.9844C78.2578 23.0885 77.9622 23.1406 77.6133 23.1406ZM77.7539 22.3125C78.1185 22.3125 78.4258 22.2409 78.6758 22.0977C78.9284 21.9544 79.1185 21.7695 79.2461 21.543C79.3763 21.3164 79.4414 21.0781 79.4414 20.8281V19.9844C79.4023 20.0312 79.3164 20.0742 79.1836 20.1133C79.0534 20.1497 78.9023 20.1823 78.7305 20.2109C78.5612 20.237 78.3958 20.2604 78.2344 20.2812C78.0755 20.2995 77.9466 20.3151 77.8477 20.3281C77.6081 20.3594 77.3841 20.4102 77.1758 20.4805C76.9701 20.5482 76.8034 20.651 76.6758 20.7891C76.5508 20.9245 76.4883 21.1094 76.4883 21.3437C76.4883 21.6641 76.6068 21.9062 76.8438 22.0703C77.0833 22.2318 77.3867 22.3125 77.7539 22.3125ZM85.749 17V17.8594H82.9678V23H82.0459V17H85.749ZM87.0947 25.25V17H87.9854V17.9531H88.0947C88.1624 17.849 88.2562 17.7161 88.376 17.5547C88.4984 17.3906 88.6729 17.2448 88.8994 17.1172C89.1286 16.987 89.4385 16.9219 89.8291 16.9219C90.3343 16.9219 90.7796 17.0482 91.165 17.3008C91.5505 17.5534 91.8512 17.9115 92.0674 18.375C92.2835 18.8385 92.3916 19.3854 92.3916 20.0156C92.3916 20.651 92.2835 21.2018 92.0674 21.668C91.8512 22.1315 91.5518 22.4909 91.1689 22.7461C90.7861 22.9987 90.3447 23.125 89.8447 23.125C89.4593 23.125 89.1507 23.0612 88.9189 22.9336C88.6872 22.8034 88.5088 22.6562 88.3838 22.4922C88.2588 22.3255 88.1624 22.1875 88.0947 22.0781H88.0166V25.25H87.0947ZM88.001 20C88.001 20.4531 88.0674 20.8529 88.2002 21.1992C88.333 21.543 88.527 21.8125 88.7822 22.0078C89.0374 22.2005 89.3499 22.2969 89.7197 22.2969C90.1051 22.2969 90.4268 22.1953 90.6846 21.9922C90.945 21.7865 91.1403 21.5104 91.2705 21.1641C91.4033 20.8151 91.4697 20.4271 91.4697 20C91.4697 19.5781 91.4046 19.1979 91.2744 18.8594C91.1468 18.5182 90.9528 18.2487 90.6924 18.0508C90.4346 17.8503 90.1104 17.75 89.7197 17.75C89.3447 17.75 89.0296 17.8451 88.7744 18.0352C88.5192 18.2227 88.3265 18.4857 88.1963 18.8242C88.0661 19.1602 88.001 19.5521 88.001 20ZM94.1768 25.25C94.0205 25.25 93.8812 25.237 93.7588 25.2109C93.6364 25.1875 93.5518 25.1641 93.5049 25.1406L93.7393 24.3281C93.9632 24.3854 94.1611 24.4063 94.333 24.3906C94.5049 24.375 94.6572 24.2982 94.79 24.1602C94.9255 24.0247 95.0492 23.8047 95.1611 23.5L95.333 23.0313L93.1143 17H94.1143L95.7705 21.7812H95.833L97.4893 17H98.4893L95.9424 23.875C95.8278 24.1849 95.6859 24.4414 95.5166 24.6445C95.3473 24.8503 95.1507 25.0026 94.9268 25.1016C94.7054 25.2005 94.4554 25.25 94.1768 25.25ZM99.3311 21.4687H100.315C100.336 21.7396 100.459 21.9453 100.683 22.0859C100.909 22.2266 101.203 22.2969 101.565 22.2969C101.935 22.2969 102.252 22.2214 102.515 22.0703C102.778 21.9167 102.909 21.6693 102.909 21.3281C102.909 21.1276 102.86 20.9531 102.761 20.8047C102.662 20.6536 102.522 20.5365 102.343 20.4531C102.163 20.3698 101.951 20.3281 101.706 20.3281H100.675V19.5H101.706C102.073 19.5 102.344 19.4167 102.519 19.25C102.696 19.0833 102.784 18.875 102.784 18.625C102.784 18.3568 102.689 18.1419 102.499 17.9805C102.309 17.8164 102.039 17.7344 101.69 17.7344C101.339 17.7344 101.046 17.8138 100.812 17.9727C100.577 18.1289 100.453 18.3307 100.44 18.5781H99.4717C99.4821 18.2552 99.5811 17.9701 99.7686 17.7227C99.9561 17.4727 100.211 17.2773 100.534 17.1367C100.857 16.9935 101.227 16.9219 101.644 16.9219C102.065 16.9219 102.431 16.9961 102.741 17.1445C103.054 17.2904 103.295 17.4896 103.464 17.7422C103.636 17.9922 103.722 18.276 103.722 18.5937C103.722 18.9323 103.627 19.2057 103.437 19.4141C103.246 19.6224 103.008 19.7708 102.722 19.8594V19.9219C102.948 19.9375 103.145 20.0104 103.312 20.1406C103.481 20.2682 103.612 20.4362 103.706 20.6445C103.8 20.8503 103.847 21.0781 103.847 21.3281C103.847 21.6927 103.749 22.0104 103.554 22.2812C103.358 22.5495 103.09 22.7578 102.749 22.9062C102.408 23.0521 102.019 23.125 101.581 23.125C101.157 23.125 100.776 23.056 100.44 22.918C100.104 22.7773 99.8376 22.5833 99.6396 22.3359C99.4443 22.0859 99.3415 21.7969 99.3311 21.4687ZM106.063 21.6406L108.954 17H110.017V23H109.095V18.3594L106.22 23H105.142V17H106.063V21.6406ZM110.889 17.8594V17H115.764V17.8594H113.795V23H112.873V17.8594H110.889ZM119.313 23.125C118.734 23.125 118.236 22.9974 117.816 22.7422C117.4 22.4844 117.078 22.125 116.852 21.6641C116.628 21.2005 116.516 20.6615 116.516 20.0469C116.516 19.4323 116.628 18.8906 116.852 18.4219C117.078 17.9505 117.393 17.5833 117.797 17.3203C118.203 17.0547 118.677 16.9219 119.219 16.9219C119.531 16.9219 119.84 16.974 120.145 17.0781C120.449 17.1823 120.727 17.3516 120.977 17.5859C121.227 17.8177 121.426 18.125 121.574 18.5078C121.723 18.8906 121.797 19.362 121.797 19.9219V20.3125H117.172V19.5156H120.859C120.859 19.1771 120.792 18.875 120.656 18.6094C120.523 18.3437 120.333 18.1341 120.086 17.9805C119.841 17.8268 119.552 17.75 119.219 17.75C118.852 17.75 118.534 17.8411 118.266 18.0234C118 18.2031 117.796 18.4375 117.652 18.7266C117.509 19.0156 117.438 19.3255 117.438 19.6562V20.1875C117.438 20.6406 117.516 21.0247 117.672 21.3398C117.831 21.6523 118.051 21.8906 118.332 22.0547C118.613 22.2161 118.94 22.2969 119.313 22.2969C119.555 22.2969 119.773 22.263 119.969 22.1953C120.167 22.125 120.337 22.0208 120.48 21.8828C120.624 21.7422 120.734 21.5677 120.813 21.3594L121.703 21.6094C121.609 21.9115 121.452 22.1771 121.23 22.4062C121.009 22.6328 120.736 22.8099 120.41 22.9375C120.085 23.0625 119.719 23.125 119.313 23.125ZM126.293 23V17H128.746C129.392 17 129.905 17.1458 130.285 17.4375C130.665 17.7292 130.855 18.1146 130.855 18.5937C130.855 18.9583 130.747 19.2409 130.531 19.4414C130.315 19.6393 130.038 19.7734 129.699 19.8438C129.921 19.875 130.135 19.9531 130.344 20.0781C130.555 20.2031 130.729 20.375 130.867 20.5938C131.005 20.8099 131.074 21.0755 131.074 21.3906C131.074 21.6979 130.996 21.9727 130.84 22.2148C130.684 22.457 130.46 22.6484 130.168 22.7891C129.876 22.9297 129.527 23 129.121 23H126.293ZM127.168 22.1562H129.121C129.439 22.1562 129.688 22.0807 129.867 21.9297C130.047 21.7786 130.137 21.5729 130.137 21.3125C130.137 21.0026 130.047 20.7591 129.867 20.582C129.688 20.4023 129.439 20.3125 129.121 20.3125H127.168V22.1562ZM127.168 19.5156H128.746C128.993 19.5156 129.206 19.4818 129.383 19.4141C129.56 19.3437 129.695 19.2448 129.789 19.1172C129.885 18.987 129.934 18.8333 129.934 18.6562C129.934 18.4036 129.828 18.2057 129.617 18.0625C129.406 17.9167 129.116 17.8438 128.746 17.8438H127.168V19.5156Z" fill="white"/>
</g>
<defs>
<filter id="filter0_dd_815_412" x="0" y="0" width="178" height="66" filterUnits="userSpaceOnUse" color-interpolation-filters="sRGB">
<feFlood flood-opacity="0" result="BackgroundImageFix"/>
<feColorMatrix in="SourceAlpha" type="matrix" values="0 0 0 0 0 0 0 0 0 0 0 0 0 0 0 0 0 0 127 0" result="hardAlpha"/>
<feOffset dx="1" dy="1"/>
<feGaussianBlur stdDeviation="4"/>
<feComposite in2="hardAlpha" operator="out"/>
<feColorMatrix type="matrix" values="0 0 0 0 0 0 0 0 0 0 0 0 0 0 0 0 0 0 0.05 0"/>
<feBlend mode="normal" in2="BackgroundImageFix" result="effect1_dropShadow_815_412"/>
<feColorMatrix in="SourceAlpha" type="matrix" values="0 0 0 0 0 0 0 0 0 0 0 0 0 0 0 0 0 0 127 0" result="hardAlpha"/>
<feOffset dx="-1" dy="-1"/>
<feGaussianBlur stdDeviation="4"/>
<feComposite in2="hardAlpha" operator="out"/>
<feColorMatrix type="matrix" values="0 0 0 0 0 0 0 0 0 0 0 0 0 0 0 0 0 0 0.05 0"/>
<feBlend mode="normal" in2="effect1_dropShadow_815_412" result="effect2_dropShadow_815_412"/>
<feBlend mode="normal" in="SourceGraphic" in2="effect2_dropShadow_815_412" result="shape"/>
</filter>
</defs>
</svg>
