<svg width="48" height="48" viewBox="0 0 48 48" fill="none" xmlns="http://www.w3.org/2000/svg">
<g clip-path="url(#clip0_879_332)">
<path d="M46.996 12.3718C46.444 10.2938 44.818 8.6558 42.752 8.0998C39.01 7.0918 24 7.0918 24 7.0918C24 7.0918 8.99 7.0918 5.246 8.0998C3.182 8.6558 1.556 10.2918 1.004 12.3718C0 16.1398 0 23.9998 0 23.9998C0 23.9998 0 31.8598 1.004 35.6278C1.556 37.7058 3.182 39.3438 5.248 39.8998C8.99 40.9078 24 40.9078 24 40.9078C24 40.9078 39.01 40.9078 42.754 39.8998C44.818 39.3438 46.444 37.7078 46.998 35.6278C48 31.8598 48 23.9998 48 23.9998C48 23.9998 48 16.1398 46.996 12.3718ZM19.092 31.1378V16.8618L31.636 23.9998L19.092 31.1378Z" fill="#333333"/>
</g>
<defs>
<clipPath id="clip0_879_332">
<rect width="48" height="48" fill="white"/>
</clipPath>
</defs>
</svg>
