<svg width="48" height="48" viewBox="0 0 48 48" fill="none" xmlns="http://www.w3.org/2000/svg">
<g clip-path="url(#clip0_632_2507)">
<path d="M48 24.146C48 36.124 39.212 46.054 27.74 47.856V31.13H33.318L34.38 24.21H27.74V19.72C27.74 17.826 28.668 15.982 31.64 15.982H34.658V10.09C34.658 10.09 31.918 9.622 29.3 9.622C23.832 9.622 20.26 12.936 20.26 18.934V24.208H14.182V31.128H20.26V47.854C8.79 46.05 0 36.122 0 24.146C0 10.892 10.746 0.145996 24 0.145996C37.254 0.145996 48 10.89 48 24.146Z" fill="#333333"/>
</g>
<defs>
<clipPath id="clip0_632_2507">
<rect width="48" height="48" fill="white"/>
</clipPath>
</defs>
</svg>
