<svg width="178" height="66" viewBox="0 0 178 66" fill="none" xmlns="http://www.w3.org/2000/svg">
<g filter="url(#filter0_dd_815_394)">
<rect x="9" y="9" width="160" height="48" rx="8" fill="#4695EB"/>
<path fill-rule="evenodd" clip-rule="evenodd" d="M24.92 18.3472C24.5801 18.7125 24.3848 19.2747 24.3848 20.0052V45.9899C24.3848 46.7204 24.5801 47.2826 24.9327 47.6351L25.0248 47.7129L39.5846 33.1532V32.826L25.0121 18.2694L24.92 18.3472Z" fill="url(#paint0_linear_815_394)"/>
<path fill-rule="evenodd" clip-rule="evenodd" d="M44.4287 38.0255L39.5723 33.1675V32.8276L44.4303 27.9696L44.5351 28.0347L50.2809 31.2999C51.9262 32.2273 51.9262 33.7551 50.2809 34.6952L44.5351 37.9604C44.5335 37.9604 44.4287 38.0255 44.4287 38.0255Z" fill="url(#paint1_linear_815_394)"/>
<path fill-rule="evenodd" clip-rule="evenodd" d="M44.5331 37.9604L39.5718 32.9976L24.9199 47.6495C25.4551 48.2243 26.3556 48.2895 27.3624 47.7273L44.5331 37.9604Z" fill="url(#paint2_linear_815_394)"/>
<path fill-rule="evenodd" clip-rule="evenodd" d="M44.5331 28.0363L27.3624 18.2822C26.3572 17.7073 25.4551 17.7851 24.9199 18.36L39.5702 32.9976L44.5331 28.0363Z" fill="url(#paint3_linear_815_394)"/>
<path opacity="0.2" fill-rule="evenodd" clip-rule="evenodd" d="M44.4282 37.8556L27.3751 47.5446C26.4223 48.0925 25.5726 48.0544 25.0247 47.5573L24.9326 47.6495L25.0247 47.7273C25.5726 48.2228 26.4223 48.2625 27.3751 47.7146L44.5458 37.9604L44.4282 37.8556Z" fill="black"/>
<path opacity="0.12" fill-rule="evenodd" clip-rule="evenodd" d="M50.2793 34.5253L44.416 37.8556L44.5208 37.9604L50.2666 34.6952C51.0892 34.2252 51.4942 33.6122 51.4942 32.9976C51.4418 33.5597 51.0241 34.0949 50.2793 34.5253Z" fill="black"/>
<path opacity="0.25" fill-rule="evenodd" clip-rule="evenodd" d="M27.3625 18.4521L50.2789 31.4714C51.0237 31.8891 51.4414 32.437 51.5065 32.9992C51.5065 32.3861 51.1015 31.7715 50.2789 31.3015L27.3625 18.2822C25.7172 17.342 24.3848 18.1249 24.3848 20.0052V20.1752C24.3848 18.2949 25.7172 17.5246 27.3625 18.4521Z" fill="white"/>
<path fill-rule="evenodd" clip-rule="evenodd" d="M57.0999 36.1733C57.0999 32.0109 60.5985 28.6218 64.7609 28.6218C67.0621 28.6218 68.6994 29.5255 69.935 30.7022L68.4802 32.157C67.5973 31.328 66.3998 30.6848 64.7593 30.6848C61.7197 30.6848 59.3439 33.1321 59.3439 36.1717C59.3439 39.2113 61.7197 41.6618 64.7577 41.6618C66.7286 41.6618 67.8498 40.8709 68.5692 40.1499C69.1584 39.5607 69.5443 38.7143 69.6936 37.5534H64.7609V35.4952H71.7041C71.7772 35.8636 71.8153 36.3051 71.8153 36.7831C71.8153 38.3283 71.3912 40.2452 70.0271 41.6094C68.6994 42.991 67.0065 43.7279 64.7593 43.7279C60.5953 43.7279 57.0967 40.3421 57.0967 36.1765L57.0999 36.1733ZM77.4277 34.0008C74.739 34.0008 72.5442 36.0462 72.5442 38.862C72.5442 41.6634 74.7374 43.7232 77.4277 43.7232C80.1179 43.7232 82.3079 41.6602 82.3079 38.8604C82.3079 36.0446 80.1163 33.9992 77.4277 34.0008ZM77.4277 41.8111C75.9555 41.8111 74.6834 40.5962 74.6834 38.8635C74.6834 37.1134 75.9539 35.916 77.4277 35.916C78.8998 35.916 80.1703 37.1119 80.1703 38.8635C80.1703 40.5946 78.9014 41.8111 77.4277 41.8111ZM88.0759 34.0008C85.3873 34.0008 83.1957 36.0462 83.1957 38.862C83.1957 41.6634 85.3873 43.7232 88.0759 43.7232C90.7646 43.7232 92.9562 41.6602 92.9562 38.8604C92.9562 36.0446 90.7662 33.9992 88.0759 34.0008ZM88.0759 41.8111C86.6037 41.8111 85.3317 40.5962 85.3317 38.8635C85.3317 37.1134 86.6022 35.916 88.0759 35.916C89.5481 35.916 90.8202 37.1119 90.8202 38.8635C90.8202 40.5946 89.5481 41.8111 88.0759 41.8111ZM101.144 34.2961V35.087H101.071C100.593 34.5137 99.6723 33.9992 98.513 33.9992C96.0816 33.9992 93.8503 36.1368 93.8503 38.8826C93.8503 41.6062 96.08 43.7263 98.513 43.7263C99.6723 43.7263 100.593 43.2118 101.071 42.6226H101.144V43.3214C101.144 45.181 100.15 46.1768 98.5479 46.1768C97.2393 46.1768 96.4294 45.2366 96.0975 44.4473L94.2362 45.2207C94.7698 46.5087 96.1896 48.0936 98.5463 48.0936C101.049 48.0936 103.168 46.6183 103.168 43.0276V34.2946L101.144 34.2961ZM98.6956 41.8111C97.2234 41.8111 95.9863 40.5755 95.9863 38.8826C95.9863 37.1706 97.2218 35.9176 98.6956 35.9176C100.15 35.9176 101.292 37.169 101.292 38.8826C101.294 40.5755 100.152 41.8111 98.6956 41.8111ZM104.643 29.138H106.781V43.4309H104.643V29.138ZM112.639 41.8111C111.553 41.8111 110.778 41.3124 110.284 40.3389L116.786 37.647L116.562 37.0944C116.158 36.0097 114.923 34.0008 112.399 34.0008C109.895 34.0008 107.813 35.9716 107.813 38.8635C107.813 41.5871 109.876 43.7247 112.639 43.7247C114.869 43.7247 116.158 42.3637 116.692 41.5697L115.034 40.4659C114.48 41.2775 113.724 41.8127 112.639 41.8111ZM112.472 35.8795C113.319 35.8795 114.037 36.3035 114.277 36.9102L109.928 38.7158C109.874 36.8371 111.385 35.8795 112.472 35.8795Z" fill="white"/>
<path fill-rule="evenodd" clip-rule="evenodd" d="M126.165 29.1379H121.055V43.4309H123.188V38.0171H126.167C128.532 38.0171 130.856 36.3051 130.856 33.5767C130.856 30.8531 128.533 29.1395 126.17 29.1395L126.165 29.1379ZM126.221 36.0272H123.188V31.1263H126.221C127.815 31.1263 128.724 32.4491 128.724 33.5767C128.724 34.6852 127.815 36.0272 126.221 36.0272ZM134.165 43.4309V29.1379H132.032V43.4309H134.165ZM143.746 43.4055V37.9265C143.746 35.3887 141.849 33.9737 139.402 33.9737C137.86 33.9737 136.261 34.655 135.599 36.1621L137.492 36.9514C137.897 36.1621 138.649 35.9033 139.442 35.9033C140.544 35.9033 141.665 36.5655 141.683 37.7439V37.8916C141.297 37.6708 140.471 37.3389 139.458 37.3389C137.417 37.3389 135.34 38.4601 135.34 40.5564C135.34 42.4701 137.014 43.7009 138.889 43.7009C140.325 43.7009 141.114 43.0577 141.61 42.305H141.683V43.4087H143.744L143.746 43.4055ZM139.148 41.8079C138.449 41.8079 137.474 41.4585 137.474 40.5961C137.474 39.4924 138.689 39.0668 139.737 39.0668C140.676 39.0668 141.116 39.2685 141.687 39.5448C141.524 40.828 140.439 41.792 139.148 41.8079ZM151.246 34.2866L148.801 40.4818H148.727L146.19 34.2866H143.892L147.697 42.9481L145.526 47.7649H147.751L153.616 34.2866H151.246Z" fill="white"/>
<path d="M60.5313 23.1094C60.0156 23.1094 59.556 23.0208 59.1523 22.8437C58.7513 22.6667 58.4323 22.4206 58.1953 22.1055C57.9609 21.7878 57.8333 21.4193 57.8125 21H58.7969C58.8177 21.2578 58.9063 21.4805 59.0625 21.668C59.2188 21.8529 59.4232 21.9961 59.6758 22.0977C59.9284 22.1992 60.2083 22.25 60.5156 22.25C60.8594 22.25 61.1641 22.1901 61.4297 22.0703C61.6953 21.9505 61.9036 21.7839 62.0547 21.5703C62.2057 21.3568 62.2813 21.1094 62.2813 20.8281C62.2813 20.5339 62.2083 20.2747 62.0625 20.0508C61.9167 19.8242 61.7031 19.6471 61.4219 19.5195C61.1406 19.3919 60.7969 19.3281 60.3906 19.3281H59.75V18.4687H60.3906C60.7083 18.4687 60.987 18.4115 61.2266 18.2969C61.4688 18.1823 61.6576 18.0208 61.793 17.8125C61.931 17.6042 62 17.3594 62 17.0781C62 16.8073 61.9401 16.5716 61.8203 16.3711C61.7005 16.1706 61.5313 16.0143 61.3125 15.9023C61.0964 15.7904 60.8411 15.7344 60.5469 15.7344C60.2708 15.7344 60.0104 15.7852 59.7656 15.8867C59.5234 15.9857 59.3255 16.1302 59.1719 16.3203C59.0182 16.5078 58.9349 16.7344 58.9219 17H57.9844C58 16.5807 58.1263 16.2135 58.3633 15.8984C58.6003 15.5807 58.9102 15.3333 59.293 15.1562C59.6784 14.9792 60.1016 14.8906 60.5625 14.8906C61.0573 14.8906 61.4818 14.9909 61.8359 15.1914C62.1901 15.3893 62.4622 15.651 62.6523 15.9766C62.8424 16.3021 62.9375 16.6536 62.9375 17.0313C62.9375 17.4818 62.819 17.8659 62.582 18.1836C62.3477 18.5013 62.0286 18.7214 61.625 18.8438V18.9062C62.1302 18.9896 62.5247 19.2044 62.8086 19.5508C63.0924 19.8945 63.2344 20.3203 63.2344 20.8281C63.2344 21.263 63.1159 21.6536 62.8789 22C62.6445 22.3437 62.3242 22.6146 61.918 22.8125C61.5117 23.0104 61.0495 23.1094 60.5313 23.1094ZM66.6133 23.1406C66.2331 23.1406 65.888 23.069 65.5781 22.9258C65.2682 22.7799 65.0221 22.5703 64.8398 22.2969C64.6576 22.0208 64.5664 21.6875 64.5664 21.2969C64.5664 20.9531 64.6341 20.6745 64.7695 20.4609C64.9049 20.2448 65.0859 20.0755 65.3125 19.9531C65.5391 19.8307 65.7891 19.7396 66.0625 19.6797C66.3385 19.6172 66.6159 19.5677 66.8945 19.5313C67.2591 19.4844 67.5547 19.4492 67.7813 19.4258C68.0104 19.3997 68.1771 19.3568 68.2813 19.2969C68.388 19.237 68.4414 19.1328 68.4414 18.9844V18.9531C68.4414 18.5677 68.3359 18.2682 68.125 18.0547C67.9167 17.8411 67.6003 17.7344 67.1758 17.7344C66.7357 17.7344 66.3906 17.8307 66.1406 18.0234C65.8906 18.2161 65.7148 18.4219 65.6133 18.6406L64.7383 18.3281C64.8945 17.9635 65.1029 17.6797 65.3633 17.4766C65.6263 17.2708 65.9128 17.1276 66.2227 17.0469C66.5352 16.9635 66.8424 16.9219 67.1445 16.9219C67.3372 16.9219 67.5586 16.9453 67.8086 16.9922C68.0612 17.0365 68.3047 17.1289 68.5391 17.2695C68.776 17.4102 68.9727 17.6224 69.1289 17.9062C69.2852 18.1901 69.3633 18.5703 69.3633 19.0469V23H68.4414V22.1875H68.3945C68.332 22.3177 68.2279 22.457 68.082 22.6055C67.9362 22.7539 67.7422 22.8802 67.5 22.9844C67.2578 23.0885 66.9622 23.1406 66.6133 23.1406ZM66.7539 22.3125C67.1185 22.3125 67.4258 22.2409 67.6758 22.0977C67.9284 21.9544 68.1185 21.7695 68.2461 21.543C68.3763 21.3164 68.4414 21.0781 68.4414 20.8281V19.9844C68.4023 20.0312 68.3164 20.0742 68.1836 20.1133C68.0534 20.1497 67.9023 20.1823 67.7305 20.2109C67.5612 20.237 67.3958 20.2604 67.2344 20.2812C67.0755 20.2995 66.9466 20.3151 66.8477 20.3281C66.6081 20.3594 66.3841 20.4102 66.1758 20.4805C65.9701 20.5482 65.8034 20.651 65.6758 20.7891C65.5508 20.9245 65.4883 21.1094 65.4883 21.3437C65.4883 21.6641 65.6068 21.9062 65.8438 22.0703C66.0833 22.2318 66.3867 22.3125 66.7539 22.3125ZM74.749 17V17.8594H71.9678V23H71.0459V17H74.749ZM76.0947 25.25V17H76.9854V17.9531H77.0947C77.1624 17.849 77.2562 17.7161 77.376 17.5547C77.4984 17.3906 77.6729 17.2448 77.8994 17.1172C78.1286 16.987 78.4385 16.9219 78.8291 16.9219C79.3343 16.9219 79.7796 17.0482 80.165 17.3008C80.5505 17.5534 80.8512 17.9115 81.0674 18.375C81.2835 18.8385 81.3916 19.3854 81.3916 20.0156C81.3916 20.651 81.2835 21.2018 81.0674 21.668C80.8512 22.1315 80.5518 22.4909 80.1689 22.7461C79.7861 22.9987 79.3447 23.125 78.8447 23.125C78.4593 23.125 78.1507 23.0612 77.9189 22.9336C77.6872 22.8034 77.5088 22.6562 77.3838 22.4922C77.2588 22.3255 77.1624 22.1875 77.0947 22.0781H77.0166V25.25H76.0947ZM77.001 20C77.001 20.4531 77.0674 20.8529 77.2002 21.1992C77.333 21.543 77.527 21.8125 77.7822 22.0078C78.0374 22.2005 78.3499 22.2969 78.7197 22.2969C79.1051 22.2969 79.4268 22.1953 79.6846 21.9922C79.945 21.7865 80.1403 21.5104 80.2705 21.1641C80.4033 20.8151 80.4697 20.4271 80.4697 20C80.4697 19.5781 80.4046 19.1979 80.2744 18.8594C80.1468 18.5182 79.9528 18.2487 79.6924 18.0508C79.4346 17.8503 79.1104 17.75 78.7197 17.75C78.3447 17.75 78.0296 17.8451 77.7744 18.0352C77.5192 18.2227 77.3265 18.4857 77.1963 18.8242C77.0661 19.1602 77.001 19.5521 77.001 20ZM83.1768 25.25C83.0205 25.25 82.8812 25.237 82.7588 25.2109C82.6364 25.1875 82.5518 25.1641 82.5049 25.1406L82.7393 24.3281C82.9632 24.3854 83.1611 24.4063 83.333 24.3906C83.5049 24.375 83.6572 24.2982 83.79 24.1602C83.9255 24.0247 84.0492 23.8047 84.1611 23.5L84.333 23.0313L82.1143 17H83.1143L84.7705 21.7812H84.833L86.4893 17H87.4893L84.9424 23.875C84.8278 24.1849 84.6859 24.4414 84.5166 24.6445C84.3473 24.8503 84.1507 25.0026 83.9268 25.1016C83.7054 25.2005 83.4554 25.25 83.1768 25.25ZM88.3311 21.4687H89.3154C89.3363 21.7396 89.4587 21.9453 89.6826 22.0859C89.9092 22.2266 90.2035 22.2969 90.5654 22.2969C90.9352 22.2969 91.2516 22.2214 91.5146 22.0703C91.7777 21.9167 91.9092 21.6693 91.9092 21.3281C91.9092 21.1276 91.8597 20.9531 91.7607 20.8047C91.6618 20.6536 91.5225 20.5365 91.3428 20.4531C91.1631 20.3698 90.9508 20.3281 90.7061 20.3281H89.6748V19.5H90.7061C91.0732 19.5 91.3441 19.4167 91.5186 19.25C91.6956 19.0833 91.7842 18.875 91.7842 18.625C91.7842 18.3568 91.6891 18.1419 91.499 17.9805C91.3089 17.8164 91.0394 17.7344 90.6904 17.7344C90.3389 17.7344 90.0459 17.8138 89.8115 17.9727C89.5771 18.1289 89.4535 18.3307 89.4404 18.5781H88.4717C88.4821 18.2552 88.5811 17.9701 88.7686 17.7227C88.9561 17.4727 89.2113 17.2773 89.5342 17.1367C89.8571 16.9935 90.2269 16.9219 90.6436 16.9219C91.0654 16.9219 91.4313 16.9961 91.7412 17.1445C92.0537 17.2904 92.2946 17.4896 92.4639 17.7422C92.6357 17.9922 92.7217 18.276 92.7217 18.5937C92.7217 18.9323 92.6266 19.2057 92.4365 19.4141C92.2464 19.6224 92.0081 19.7708 91.7217 19.8594V19.9219C91.9482 19.9375 92.1449 20.0104 92.3115 20.1406C92.4808 20.2682 92.6123 20.4362 92.7061 20.6445C92.7998 20.8503 92.8467 21.0781 92.8467 21.3281C92.8467 21.6927 92.749 22.0104 92.5537 22.2812C92.3584 22.5495 92.0902 22.7578 91.749 22.9062C91.4079 23.0521 91.0186 23.125 90.5811 23.125C90.1566 23.125 89.7764 23.056 89.4404 22.918C89.1045 22.7773 88.8376 22.5833 88.6396 22.3359C88.4443 22.0859 88.3415 21.7969 88.3311 21.4687ZM95.0635 21.6406L97.9541 17H99.0166V23H98.0947V18.3594L95.2197 23H94.1416V17H95.0635V21.6406ZM99.8887 17.8594V17H104.764V17.8594H102.795V23H101.873V17.8594H99.8887ZM108.313 23.125C107.734 23.125 107.236 22.9974 106.816 22.7422C106.4 22.4844 106.078 22.125 105.852 21.6641C105.628 21.2005 105.516 20.6615 105.516 20.0469C105.516 19.4323 105.628 18.8906 105.852 18.4219C106.078 17.9505 106.393 17.5833 106.797 17.3203C107.203 17.0547 107.677 16.9219 108.219 16.9219C108.531 16.9219 108.84 16.974 109.145 17.0781C109.449 17.1823 109.727 17.3516 109.977 17.5859C110.227 17.8177 110.426 18.125 110.574 18.5078C110.723 18.8906 110.797 19.362 110.797 19.9219V20.3125H106.172V19.5156H109.859C109.859 19.1771 109.792 18.875 109.656 18.6094C109.523 18.3437 109.333 18.1341 109.086 17.9805C108.841 17.8268 108.552 17.75 108.219 17.75C107.852 17.75 107.534 17.8411 107.266 18.0234C107 18.2031 106.796 18.4375 106.652 18.7266C106.509 19.0156 106.438 19.3255 106.438 19.6562V20.1875C106.438 20.6406 106.516 21.0247 106.672 21.3398C106.831 21.6523 107.051 21.8906 107.332 22.0547C107.613 22.2161 107.94 22.2969 108.313 22.2969C108.555 22.2969 108.773 22.263 108.969 22.1953C109.167 22.125 109.337 22.0208 109.48 21.8828C109.624 21.7422 109.734 21.5677 109.813 21.3594L110.703 21.6094C110.609 21.9115 110.452 22.1771 110.23 22.4062C110.009 22.6328 109.736 22.8099 109.41 22.9375C109.085 23.0625 108.719 23.125 108.313 23.125ZM115.293 23V17H117.746C118.392 17 118.905 17.1458 119.285 17.4375C119.665 17.7292 119.855 18.1146 119.855 18.5937C119.855 18.9583 119.747 19.2409 119.531 19.4414C119.315 19.6393 119.038 19.7734 118.699 19.8438C118.921 19.875 119.135 19.9531 119.344 20.0781C119.555 20.2031 119.729 20.375 119.867 20.5938C120.005 20.8099 120.074 21.0755 120.074 21.3906C120.074 21.6979 119.996 21.9727 119.84 22.2148C119.684 22.457 119.46 22.6484 119.168 22.7891C118.876 22.9297 118.527 23 118.121 23H115.293ZM116.168 22.1562H118.121C118.439 22.1562 118.688 22.0807 118.867 21.9297C119.047 21.7786 119.137 21.5729 119.137 21.3125C119.137 21.0026 119.047 20.7591 118.867 20.582C118.688 20.4023 118.439 20.3125 118.121 20.3125H116.168V22.1562ZM116.168 19.5156H117.746C117.993 19.5156 118.206 19.4818 118.383 19.4141C118.56 19.3437 118.695 19.2448 118.789 19.1172C118.885 18.987 118.934 18.8333 118.934 18.6562C118.934 18.4036 118.828 18.2057 118.617 18.0625C118.406 17.9167 118.116 17.8438 117.746 17.8438H116.168V19.5156Z" fill="white"/>
</g>
<defs>
<filter id="filter0_dd_815_394" x="0" y="0" width="178" height="66" filterUnits="userSpaceOnUse" color-interpolation-filters="sRGB">
<feFlood flood-opacity="0" result="BackgroundImageFix"/>
<feColorMatrix in="SourceAlpha" type="matrix" values="0 0 0 0 0 0 0 0 0 0 0 0 0 0 0 0 0 0 127 0" result="hardAlpha"/>
<feOffset dx="1" dy="1"/>
<feGaussianBlur stdDeviation="4"/>
<feComposite in2="hardAlpha" operator="out"/>
<feColorMatrix type="matrix" values="0 0 0 0 0 0 0 0 0 0 0 0 0 0 0 0 0 0 0.05 0"/>
<feBlend mode="normal" in2="BackgroundImageFix" result="effect1_dropShadow_815_394"/>
<feColorMatrix in="SourceAlpha" type="matrix" values="0 0 0 0 0 0 0 0 0 0 0 0 0 0 0 0 0 0 127 0" result="hardAlpha"/>
<feOffset dx="-1" dy="-1"/>
<feGaussianBlur stdDeviation="4"/>
<feComposite in2="hardAlpha" operator="out"/>
<feColorMatrix type="matrix" values="0 0 0 0 0 0 0 0 0 0 0 0 0 0 0 0 0 0 0.05 0"/>
<feBlend mode="normal" in2="effect1_dropShadow_815_394" result="effect2_dropShadow_815_394"/>
<feBlend mode="normal" in="SourceGraphic" in2="effect2_dropShadow_815_394" result="shape"/>
</filter>
<linearGradient id="paint0_linear_815_394" x1="38.2772" y1="19.7259" x2="14.9549" y2="25.9401" gradientUnits="userSpaceOnUse">
<stop stop-color="#00A0FF"/>
<stop offset="0.007" stop-color="#00A1FF"/>
<stop offset="0.26" stop-color="#00BEFF"/>
<stop offset="0.512" stop-color="#00D2FF"/>
<stop offset="0.76" stop-color="#00DFFF"/>
<stop offset="1" stop-color="#00E3FF"/>
</linearGradient>
<linearGradient id="paint1_linear_815_394" x1="52.4218" y1="32.9983" x2="23.9853" y2="32.9983" gradientUnits="userSpaceOnUse">
<stop stop-color="#FFE000"/>
<stop offset="0.409" stop-color="#FFBD00"/>
<stop offset="0.775" stop-color="#FFA500"/>
<stop offset="1" stop-color="#FF9C00"/>
</linearGradient>
<linearGradient id="paint2_linear_815_394" x1="41.8353" y1="35.6974" x2="23.1121" y2="67.2097" gradientUnits="userSpaceOnUse">
<stop stop-color="#FF3A44"/>
<stop offset="1" stop-color="#C31162"/>
</linearGradient>
<linearGradient id="paint3_linear_815_394" x1="21.2317" y1="9.70353" x2="29.5847" y2="23.7775" gradientUnits="userSpaceOnUse">
<stop stop-color="#32A071"/>
<stop offset="0.069" stop-color="#2DA771"/>
<stop offset="0.476" stop-color="#15CF74"/>
<stop offset="0.801" stop-color="#06E775"/>
<stop offset="1" stop-color="#00F076"/>
</linearGradient>
</defs>
</svg>
