<svg width="159" height="51" viewBox="0 0 159 51" fill="none" xmlns="http://www.w3.org/2000/svg">
<g clip-path="url(#clip0_1_19)">
<path d="M76.5391 27.6719V30.3203H69.6016V34.1172H77.4531V37H66.3438V21.2969H77.4531V24.1094H69.6016V27.6719H76.5391ZM88.4922 21.1797L95.8047 37H91.9844L90.7891 34.0703H84.5781L83.3828 37H79.5625L86.875 21.1797H88.4922ZM87.6953 26.5L85.7266 31.3047H89.6641L87.6953 26.5ZM102.672 20.9922C103.578 20.9922 104.406 21.1172 105.156 21.3672C105.906 21.6172 106.539 21.9062 107.055 22.2344V25.4453C106.492 25.1016 105.891 24.7812 105.25 24.4844C104.609 24.1875 103.883 24.0391 103.07 24.0391C102.664 24.0391 102.258 24.1016 101.852 24.2266C101.461 24.3516 101.133 24.5391 100.867 24.7891C100.617 25.0391 100.492 25.3594 100.492 25.75C100.492 26.2656 100.719 26.6562 101.172 26.9219C101.625 27.1875 102.18 27.4531 102.836 27.7188L104.758 28.5156C105.852 28.9844 106.656 29.5547 107.172 30.2266C107.688 30.8984 107.945 31.6641 107.945 32.5234C107.945 33.4609 107.672 34.2891 107.125 35.0078C106.594 35.7109 105.875 36.2656 104.969 36.6719C104.078 37.0781 103.086 37.2812 101.992 37.2812C101.07 37.2812 100.188 37.125 99.3438 36.8125C98.5 36.5 97.7656 36.1172 97.1406 35.6641V32.4531C97.8281 32.9531 98.5859 33.375 99.4141 33.7188C100.242 34.0625 101.125 34.2344 102.062 34.2344C102.719 34.2344 103.281 34.1094 103.75 33.8594C104.219 33.5938 104.453 33.2031 104.453 32.6875C104.453 32.2812 104.258 31.9531 103.867 31.7031C103.492 31.4375 103.078 31.2188 102.625 31.0469L100.211 30.1094C98.9922 29.6406 98.1641 29.0312 97.7266 28.2812C97.3047 27.5156 97.0938 26.6719 97.0938 25.75C97.0938 24.7969 97.3516 23.9688 97.8672 23.2656C98.3984 22.5469 99.0859 21.9922 99.9297 21.6016C100.773 21.1953 101.688 20.9922 102.672 20.9922ZM124.609 21.2969L118.539 31.0703V37H115.211V31.2344L109.117 21.2969H112.938L116.852 27.9062L120.789 21.2969H124.609Z" fill="#F2EB56"/>
<path d="M134.758 28.4922H140.102V34.8906C139.445 35.5781 138.609 36.1641 137.594 36.6484C136.594 37.1172 135.461 37.3516 134.195 37.3516C133.07 37.3516 132.008 37.1562 131.008 36.7656C130.008 36.3594 129.125 35.7969 128.359 35.0781C127.594 34.3438 126.992 33.4766 126.555 32.4766C126.117 31.4766 125.898 30.3672 125.898 29.1484C125.898 27.9297 126.117 26.8203 126.555 25.8203C126.992 24.8203 127.594 23.9609 128.359 23.2422C129.125 22.5078 130.008 21.9453 131.008 21.5547C132.008 21.1484 133.07 20.9453 134.195 20.9453C135.18 20.9453 136.031 21.0859 136.75 21.3672C137.469 21.6328 138.094 22 138.625 22.4688V25.75C138.25 25.4688 137.859 25.1953 137.453 24.9297C137.047 24.6641 136.586 24.4453 136.07 24.2734C135.57 24.1016 134.977 24.0156 134.289 24.0156C133.352 24.0156 132.5 24.2422 131.734 24.6953C130.969 25.1484 130.359 25.7578 129.906 26.5234C129.453 27.2891 129.227 28.1641 129.227 29.1484C129.227 30.1172 129.453 30.9922 129.906 31.7734C130.359 32.5391 130.969 33.1484 131.734 33.6016C132.5 34.0391 133.352 34.2578 134.289 34.2578C135.008 34.2578 135.586 34.1719 136.023 34C136.461 33.8281 136.805 33.6406 137.055 33.4375L137.078 30.8359H134.758V28.4922ZM150.602 20.9453C151.727 20.9453 152.781 21.1484 153.766 21.5547C154.75 21.9453 155.617 22.5078 156.367 23.2422C157.133 23.9609 157.727 24.8203 158.148 25.8203C158.586 26.8203 158.805 27.9297 158.805 29.1484C158.805 30.3672 158.586 31.4766 158.148 32.4766C157.727 33.4766 157.133 34.3438 156.367 35.0781C155.617 35.7969 154.75 36.3594 153.766 36.7656C152.781 37.1562 151.727 37.3516 150.602 37.3516C149.477 37.3516 148.414 37.1562 147.414 36.7656C146.43 36.3594 145.555 35.7969 144.789 35.0781C144.039 34.3438 143.445 33.4766 143.008 32.4766C142.586 31.4766 142.375 30.3672 142.375 29.1484C142.375 27.9297 142.586 26.8203 143.008 25.8203C143.445 24.8203 144.039 23.9609 144.789 23.2422C145.555 22.5078 146.43 21.9453 147.414 21.5547C148.414 21.1484 149.477 20.9453 150.602 20.9453ZM150.602 24.0156C149.664 24.0156 148.82 24.2422 148.07 24.6953C147.336 25.1484 146.758 25.7578 146.336 26.5234C145.914 27.2891 145.703 28.1641 145.703 29.1484C145.703 30.1172 145.914 30.9922 146.336 31.7734C146.758 32.5391 147.336 33.1484 148.07 33.6016C148.82 34.0391 149.664 34.2578 150.602 34.2578C151.539 34.2578 152.375 34.0391 153.109 33.6016C153.844 33.1484 154.422 32.5391 154.844 31.7734C155.266 30.9922 155.477 30.1172 155.477 29.1484C155.477 28.1641 155.266 27.2891 154.844 26.5234C154.422 25.7578 153.844 25.1484 153.109 24.6953C152.375 24.2422 151.539 24.0156 150.602 24.0156Z" fill="white"/>
<mask id="mask0_1_19" style="mask-type:luminance" maskUnits="userSpaceOnUse" x="0" y="0" width="34" height="51">
<path d="M34 0H0V51H34V0Z" fill="white"/>
</mask>
<g mask="url(#mask0_1_19)">
<path d="M0 17.0672C0 14.7148 0.443909 12.5065 1.33327 10.4394C2.22109 8.37388 3.43063 6.56419 4.95878 5.01502C6.48694 3.4643 8.29197 2.24389 10.3708 1.35378C12.448 0.462115 14.6614 0.0170593 17.0077 0.0170593C18.7076 0.0170593 26.8789 0.00620432 31.2453 1.45403e-06C32.7704 -0.00154926 34.0046 1.23747 34 2.76648C33.9861 7.14881 33.9613 15.3614 33.9613 17.0672C33.9613 19.4181 33.5159 21.6294 32.6281 23.695C31.7387 25.7621 30.5292 27.5702 29.0025 29.1209C27.4744 30.6716 25.6786 31.8921 23.6184 32.7822C21.5566 33.6738 19.3526 34.1189 17.0077 34.1189C14.6629 34.1189 12.4495 33.6738 10.3708 32.7822C8.29197 31.8921 6.48694 30.6716 4.95878 29.1209C3.43063 27.5702 2.22109 25.7621 1.33327 23.695C0.443909 21.6294 0 19.4196 0 17.0672ZM7.03758 17.0672C7.03758 18.4566 7.29433 19.7577 7.81094 20.9688C8.32599 22.1815 9.03748 23.2406 9.94386 24.1493C10.8502 25.058 11.9082 25.7714 13.1162 26.2878C14.3242 26.8042 15.6219 27.0631 17.0093 27.0631C18.3967 27.0631 19.6836 26.8042 20.8745 26.2878C22.064 25.7714 23.1126 25.058 24.0206 24.1493C24.9269 23.2406 25.6384 22.1815 26.1535 20.9688C26.6685 19.7577 26.9268 18.4566 26.9268 17.0672C26.9268 15.6778 26.6685 14.386 26.1535 13.192C25.6384 11.9979 24.9269 10.9465 24.0206 10.0378C23.1142 9.12908 22.0655 8.4173 20.8745 7.89936C19.6836 7.38297 18.3951 7.124 17.0093 7.124C15.6234 7.124 14.3242 7.38297 13.1162 7.89936C11.9082 8.4173 10.8502 9.12908 9.94386 10.0378C9.03748 10.9465 8.32599 11.9979 7.81094 13.192C7.29588 14.386 7.03758 15.6778 7.03758 17.0672Z" fill="white"/>
<path d="M30.4503 35.9193C28.7396 35.2695 26.8758 36.1286 26.1643 37.8189C26.1597 37.8298 26.155 37.8406 26.1504 37.8515C25.6353 39.0641 24.9238 40.1233 24.0175 41.032C23.1111 41.9407 22.0624 42.654 20.8714 43.1704C19.6805 43.6868 18.392 43.9458 17.0062 43.9458C15.6203 43.9458 14.3211 43.6868 13.1131 43.1704C11.9051 42.654 10.8471 41.9407 9.94076 41.032C9.03438 40.1233 8.32289 39.0641 7.80784 37.8515C7.77226 37.7662 7.73669 37.6824 7.70421 37.5956C7.11645 36.0836 5.5388 35.209 3.95186 35.53C3.82194 35.5564 3.69047 35.5828 3.56054 35.6091C1.52815 36.0247 0.380489 38.1849 1.14147 40.1202C1.2018 40.2737 1.26366 40.4257 1.32863 40.5761C2.21644 42.6432 3.42598 44.4513 4.95414 46.002C6.4823 47.5527 8.28732 48.7732 10.3661 49.6633C12.4449 50.5549 14.6567 51 17.0031 51C19.3495 51 21.552 50.5549 23.6138 49.6633C25.674 48.7732 27.4697 47.5527 28.9979 46.002C30.5261 44.4513 31.734 42.6432 32.6234 40.5761C32.6482 40.5187 32.6729 40.4598 32.6977 40.4024C33.4215 38.6594 32.4997 36.6838 30.7333 36.0263C30.6374 35.9906 30.5415 35.9549 30.4441 35.9177L30.4503 35.9193Z" fill="white"/>
<path d="M16.9768 24.3819C21.066 24.3819 24.3809 21.0584 24.3809 16.9586C24.3809 12.8589 21.066 9.53536 16.9768 9.53536C12.8876 9.53536 9.57265 12.8589 9.57265 16.9586C9.57265 21.0584 12.8876 24.3819 16.9768 24.3819Z" fill="#F2EB56"/>
</g>
</g>
<defs>
<clipPath id="clip0_1_19">
<rect width="159" height="51" fill="white"/>
</clipPath>
</defs>
</svg>
